<svg width="147" height="41" viewBox="0 0 147 41" fill="none" xmlns="http://www.w3.org/2000/svg">
<ellipse cx="73.5" cy="20.5" rx="73.5" ry="20.5" fill="#4E4848"/>
<path d="M51.4991 13.5455C51.3627 12.3939 50.8097 11.5 49.84 10.8636C48.8703 10.2273 47.6809 9.90909 46.2718 9.90909C45.2415 9.90909 44.34 10.0758 43.5672 10.4091C42.8021 10.7424 42.2036 11.2008 41.7718 11.7841C41.3476 12.3674 41.1354 13.0303 41.1354 13.7727C41.1354 14.3939 41.2832 14.928 41.5786 15.375C41.8816 15.8144 42.268 16.1818 42.7377 16.4773C43.2074 16.7652 43.6998 17.0038 44.215 17.1932C44.7301 17.375 45.2036 17.5227 45.6354 17.6364L47.9991 18.2727C48.6051 18.4318 49.2794 18.6515 50.0218 18.9318C50.7718 19.2121 51.4877 19.5947 52.1695 20.0795C52.8589 20.5568 53.4271 21.1705 53.8741 21.9205C54.321 22.6705 54.5445 23.5909 54.5445 24.6818C54.5445 25.9394 54.215 27.0758 53.5559 28.0909C52.9044 29.1061 51.9498 29.9129 50.6923 30.5114C49.4423 31.1098 47.9233 31.4091 46.1354 31.4091C44.4688 31.4091 43.0256 31.1402 41.8059 30.6023C40.5938 30.0644 39.6392 29.3144 38.9422 28.3523C38.2529 27.3902 37.8627 26.2727 37.7718 25H40.6809C40.7566 25.8788 41.0521 26.6061 41.5672 27.1818C42.09 27.75 42.7491 28.1742 43.5445 28.4545C44.3476 28.7273 45.2112 28.8636 46.1354 28.8636C47.2112 28.8636 48.1771 28.6894 49.0332 28.3409C49.8892 27.9848 50.5673 27.4924 51.0673 26.8636C51.5673 26.2273 51.8173 25.4848 51.8173 24.6364C51.8173 23.8636 51.6013 23.2348 51.1695 22.75C50.7377 22.2652 50.1695 21.8712 49.465 21.5682C48.7604 21.2652 47.9991 21 47.1809 20.7727L44.3173 19.9545C42.4991 19.4318 41.0597 18.6856 39.9991 17.7159C38.9385 16.7462 38.4082 15.4773 38.4082 13.9091C38.4082 12.6061 38.7604 11.4697 39.465 10.5C40.1771 9.52273 41.1316 8.76515 42.3286 8.22727C43.5332 7.68182 44.8779 7.40909 46.3627 7.40909C47.8627 7.40909 49.196 7.67803 50.3627 8.21591C51.5294 8.74621 52.4536 9.47348 53.1354 10.3977C53.8248 11.322 54.1885 12.3712 54.2263 13.5455H51.4991ZM66.4053 13.5455V15.8182H57.3599V13.5455H66.4053ZM59.9962 9.36364H62.678V26C62.678 26.7576 62.7879 27.3258 63.0076 27.7045C63.2349 28.0758 63.5227 28.3258 63.8712 28.4545C64.2273 28.5758 64.6023 28.6364 64.9962 28.6364C65.2917 28.6364 65.5341 28.6212 65.7235 28.5909C65.9129 28.553 66.0644 28.5227 66.178 28.5L66.7235 30.9091C66.5417 30.9773 66.2879 31.0455 65.9621 31.1136C65.6364 31.1894 65.2235 31.2273 64.7235 31.2273C63.9659 31.2273 63.2235 31.0644 62.4962 30.7386C61.7765 30.4129 61.178 29.9167 60.7008 29.25C60.2311 28.5833 59.9962 27.7424 59.9962 26.7273V9.36364ZM75.5758 31.4091C74.4697 31.4091 73.4659 31.2008 72.5644 30.7841C71.6629 30.3598 70.947 29.75 70.4167 28.9545C69.8864 28.1515 69.6212 27.1818 69.6212 26.0455C69.6212 25.0455 69.8182 24.2348 70.2121 23.6136C70.6061 22.9848 71.1326 22.4924 71.7917 22.1364C72.4508 21.7803 73.178 21.5152 73.9735 21.3409C74.7765 21.1591 75.5833 21.0152 76.394 20.9091C77.4546 20.7727 78.3144 20.6705 78.9735 20.6023C79.6402 20.5265 80.125 20.4015 80.428 20.2273C80.7387 20.053 80.894 19.75 80.894 19.3182V19.2273C80.894 18.1061 80.5871 17.2348 79.9735 16.6136C79.3674 15.9924 78.447 15.6818 77.2121 15.6818C75.9318 15.6818 74.928 15.9621 74.2008 16.5227C73.4735 17.0833 72.9621 17.6818 72.6667 18.3182L70.1212 17.4091C70.5758 16.3485 71.1818 15.5227 71.9394 14.9318C72.7046 14.3333 73.5379 13.9167 74.4394 13.6818C75.3485 13.4394 76.2424 13.3182 77.1212 13.3182C77.6818 13.3182 78.3258 13.3864 79.053 13.5227C79.7879 13.6515 80.4962 13.9205 81.178 14.3295C81.8674 14.7386 82.4394 15.3561 82.894 16.1818C83.3485 17.0076 83.5758 18.1136 83.5758 19.5V31H80.894V28.6364H80.7576C80.5758 29.0152 80.2727 29.4205 79.8485 29.8523C79.4243 30.2841 78.8599 30.6515 78.1553 30.9545C77.4508 31.2576 76.5909 31.4091 75.5758 31.4091ZM75.9849 29C77.0455 29 77.9394 28.7917 78.6667 28.375C79.4015 27.9583 79.9546 27.4205 80.3258 26.7614C80.7046 26.1023 80.894 25.4091 80.894 24.6818V22.2273C80.7803 22.3636 80.5303 22.4886 80.144 22.6023C79.7652 22.7083 79.3258 22.803 78.8258 22.8864C78.3333 22.9621 77.8523 23.0303 77.3826 23.0909C76.9205 23.1439 76.5455 23.1894 76.2576 23.2273C75.5606 23.3182 74.9091 23.4659 74.303 23.6705C73.7046 23.8674 73.2197 24.1667 72.8485 24.5682C72.4849 24.9621 72.303 25.5 72.303 26.1818C72.303 27.1136 72.6477 27.8182 73.3371 28.2955C74.0341 28.7652 74.9167 29 75.9849 29ZM88.4707 31V13.5455H91.0616V16.1818H91.2434C91.5616 15.3182 92.1373 14.6174 92.9707 14.0795C93.804 13.5417 94.7434 13.2727 95.7888 13.2727C95.9858 13.2727 96.232 13.2765 96.5275 13.2841C96.8229 13.2917 97.0464 13.303 97.1979 13.3182V16.0455C97.107 16.0227 96.8987 15.9886 96.5729 15.9432C96.2548 15.8902 95.9176 15.8636 95.5616 15.8636C94.7131 15.8636 93.9555 16.0417 93.2888 16.3977C92.6297 16.7462 92.107 17.2311 91.7207 17.8523C91.3419 18.4659 91.1525 19.1667 91.1525 19.9545V31H88.4707ZM109.062 13.5455V15.8182H100.016V13.5455H109.062ZM102.652 9.36364H105.334V26C105.334 26.7576 105.444 27.3258 105.664 27.7045C105.891 28.0758 106.179 28.3258 106.527 28.4545C106.884 28.5758 107.259 28.6364 107.652 28.6364C107.948 28.6364 108.19 28.6212 108.38 28.5909C108.569 28.553 108.721 28.5227 108.834 28.5L109.38 30.9091C109.198 30.9773 108.944 31.0455 108.618 31.1136C108.293 31.1894 107.88 31.2273 107.38 31.2273C106.622 31.2273 105.88 31.0644 105.152 30.7386C104.433 30.4129 103.834 29.9167 103.357 29.25C102.887 28.5833 102.652 27.7424 102.652 26.7273V9.36364Z" fill="white"/>
</svg>
