<svg width="147" height="41" viewBox="0 0 147 41" fill="none" xmlns="http://www.w3.org/2000/svg">
<ellipse cx="73.5" cy="20.5" rx="73.5" ry="20.5" fill="#4E4848"/>
<path d="M41.5455 15.5455C41.4091 14.3939 40.8561 13.5 39.8864 12.8636C38.9167 12.2273 37.7273 11.9091 36.3182 11.9091C35.2879 11.9091 34.3864 12.0758 33.6136 12.4091C32.8485 12.7424 32.25 13.2008 31.8182 13.7841C31.3939 14.3674 31.1818 15.0303 31.1818 15.7727C31.1818 16.3939 31.3295 16.928 31.625 17.375C31.928 17.8144 32.3144 18.1818 32.7841 18.4773C33.2538 18.7652 33.7462 19.0038 34.2614 19.1932C34.7765 19.375 35.25 19.5227 35.6818 19.6364L38.0455 20.2727C38.6515 20.4318 39.3258 20.6515 40.0682 20.9318C40.8182 21.2121 41.5341 21.5947 42.2159 22.0795C42.9053 22.5568 43.4735 23.1705 43.9205 23.9205C44.3674 24.6705 44.5909 25.5909 44.5909 26.6818C44.5909 27.9394 44.2614 29.0758 43.6023 30.0909C42.9508 31.1061 41.9962 31.9129 40.7386 32.5114C39.4886 33.1098 37.9697 33.4091 36.1818 33.4091C34.5152 33.4091 33.072 33.1402 31.8523 32.6023C30.6402 32.0644 29.6856 31.3144 28.9886 30.3523C28.2992 29.3902 27.9091 28.2727 27.8182 27H30.7273C30.803 27.8788 31.0985 28.6061 31.6136 29.1818C32.1364 29.75 32.7955 30.1742 33.5909 30.4545C34.3939 30.7273 35.2576 30.8636 36.1818 30.8636C37.2576 30.8636 38.2235 30.6894 39.0795 30.3409C39.9356 29.9848 40.6136 29.4924 41.1136 28.8636C41.6136 28.2273 41.8636 27.4848 41.8636 26.6364C41.8636 25.8636 41.6477 25.2348 41.2159 24.75C40.7841 24.2652 40.2159 23.8712 39.5114 23.5682C38.8068 23.2652 38.0455 23 37.2273 22.7727L34.3636 21.9545C32.5455 21.4318 31.1061 20.6856 30.0455 19.7159C28.9848 18.7462 28.4545 17.4773 28.4545 15.9091C28.4545 14.6061 28.8068 13.4697 29.5114 12.5C30.2235 11.5227 31.178 10.7652 32.375 10.2273C33.5795 9.68182 34.9242 9.40909 36.4091 9.40909C37.9091 9.40909 39.2424 9.67803 40.4091 10.2159C41.5758 10.7462 42.5 11.4735 43.1818 12.3977C43.8712 13.322 44.2348 14.3712 44.2727 15.5455H41.5455ZM56.179 33.3636C54.4972 33.3636 53.0464 32.9924 51.8267 32.25C50.6146 31.5 49.679 30.4545 49.0199 29.1136C48.3684 27.7652 48.0426 26.197 48.0426 24.4091C48.0426 22.6212 48.3684 21.0455 49.0199 19.6818C49.679 18.3106 50.5956 17.2424 51.7699 16.4773C52.9517 15.7045 54.3305 15.3182 55.9062 15.3182C56.8153 15.3182 57.7131 15.4697 58.5994 15.7727C59.4858 16.0758 60.2926 16.5682 61.0199 17.25C61.7472 17.9242 62.3267 18.8182 62.7585 19.9318C63.1903 21.0455 63.4062 22.4167 63.4062 24.0455V25.1818H49.9517V22.8636H60.679C60.679 21.8788 60.482 21 60.0881 20.2273C59.7017 19.4545 59.1487 18.8447 58.429 18.3977C57.7169 17.9508 56.8759 17.7273 55.9062 17.7273C54.8381 17.7273 53.9138 17.9924 53.1335 18.5227C52.3608 19.0455 51.7661 19.7273 51.3494 20.5682C50.9328 21.4091 50.7244 22.3106 50.7244 23.2727V24.8182C50.7244 26.1364 50.9517 27.2538 51.4062 28.1705C51.8684 29.0795 52.5085 29.7727 53.3267 30.25C54.1449 30.7197 55.0956 30.9545 56.179 30.9545C56.8835 30.9545 57.5199 30.8561 58.0881 30.6591C58.6638 30.4545 59.16 30.1515 59.5767 29.75C59.9934 29.3409 60.3153 28.8333 60.5426 28.2273L63.1335 28.9545C62.8608 29.8333 62.4025 30.6061 61.7585 31.2727C61.1146 31.9318 60.3191 32.447 59.3722 32.8182C58.4252 33.1818 57.3608 33.3636 56.179 33.3636ZM70.1676 9.72727V33H67.4858V9.72727H70.1676ZM82.3977 33.3636C80.7159 33.3636 79.2652 32.9924 78.0455 32.25C76.8333 31.5 75.8977 30.4545 75.2386 29.1136C74.5871 27.7652 74.2614 26.197 74.2614 24.4091C74.2614 22.6212 74.5871 21.0455 75.2386 19.6818C75.8977 18.3106 76.8144 17.2424 77.9886 16.4773C79.1705 15.7045 80.5492 15.3182 82.125 15.3182C83.0341 15.3182 83.9318 15.4697 84.8182 15.7727C85.7045 16.0758 86.5114 16.5682 87.2386 17.25C87.9659 17.9242 88.5455 18.8182 88.9773 19.9318C89.4091 21.0455 89.625 22.4167 89.625 24.0455V25.1818H76.1705V22.8636H86.8977C86.8977 21.8788 86.7008 21 86.3068 20.2273C85.9205 19.4545 85.3674 18.8447 84.6477 18.3977C83.9356 17.9508 83.0947 17.7273 82.125 17.7273C81.0568 17.7273 80.1326 17.9924 79.3523 18.5227C78.5795 19.0455 77.9848 19.7273 77.5682 20.5682C77.1515 21.4091 76.9432 22.3106 76.9432 23.2727V24.8182C76.9432 26.1364 77.1705 27.2538 77.625 28.1705C78.0871 29.0795 78.7273 29.7727 79.5455 30.25C80.3636 30.7197 81.3144 30.9545 82.3977 30.9545C83.1023 30.9545 83.7386 30.8561 84.3068 30.6591C84.8826 30.4545 85.3788 30.1515 85.7955 29.75C86.2121 29.3409 86.5341 28.8333 86.7614 28.2273L89.3523 28.9545C89.0795 29.8333 88.6212 30.6061 87.9773 31.2727C87.3333 31.9318 86.5379 32.447 85.5909 32.8182C84.6439 33.1818 83.5795 33.3636 82.3977 33.3636ZM100.795 33.3636C99.1591 33.3636 97.75 32.9773 96.5682 32.2045C95.3864 31.4318 94.4773 30.3674 93.8409 29.0114C93.2045 27.6553 92.8864 26.1061 92.8864 24.3636C92.8864 22.5909 93.2121 21.0265 93.8636 19.6705C94.5227 18.3068 95.4394 17.2424 96.6136 16.4773C97.7955 15.7045 99.1742 15.3182 100.75 15.3182C101.977 15.3182 103.083 15.5455 104.068 16C105.053 16.4545 105.86 17.0909 106.489 17.9091C107.117 18.7273 107.508 19.6818 107.659 20.7727H104.977C104.773 19.9773 104.318 19.2727 103.614 18.6591C102.917 18.0379 101.977 17.7273 100.795 17.7273C99.75 17.7273 98.8333 18 98.0455 18.5455C97.2652 19.0833 96.6553 19.8447 96.2159 20.8295C95.7841 21.8068 95.5682 22.9545 95.5682 24.2727C95.5682 25.6212 95.7803 26.7955 96.2045 27.7955C96.6364 28.7955 97.2424 29.572 98.0227 30.125C98.8106 30.678 99.7348 30.9545 100.795 30.9545C101.492 30.9545 102.125 30.8333 102.693 30.5909C103.261 30.3485 103.742 30 104.136 29.5455C104.53 29.0909 104.811 28.5455 104.977 27.9091H107.659C107.508 28.9394 107.133 29.8674 106.534 30.6932C105.943 31.5114 105.159 32.1629 104.182 32.6477C103.212 33.125 102.083 33.3636 100.795 33.3636ZM119.17 15.5455V17.8182H110.125V15.5455H119.17ZM112.761 11.3636H115.443V28C115.443 28.7576 115.553 29.3258 115.773 29.7045C116 30.0758 116.288 30.3258 116.636 30.4545C116.992 30.5758 117.367 30.6364 117.761 30.6364C118.057 30.6364 118.299 30.6212 118.489 30.5909C118.678 30.553 118.83 30.5227 118.943 30.5L119.489 32.9091C119.307 32.9773 119.053 33.0455 118.727 33.1136C118.402 33.1894 117.989 33.2273 117.489 33.2273C116.731 33.2273 115.989 33.0644 115.261 32.7386C114.542 32.4129 113.943 31.9167 113.466 31.25C112.996 30.5833 112.761 29.7424 112.761 28.7273V11.3636Z" fill="white"/>
</svg>
