<svg width="108" height="78" viewBox="0 0 108 78" fill="none" xmlns="http://www.w3.org/2000/svg">
<ellipse cx="53.7021" cy="38.6725" rx="53.7021" ry="38.6725" fill="#00802F"/>
<ellipse cx="53.7021" cy="38.6725" rx="53.7021" ry="38.6725" fill="#00802F"/>
<ellipse cx="53.7021" cy="38.6725" rx="53.7021" ry="38.6725" fill="#A90202"/>
<path d="M44.2273 54V19.0909H56.4318C58.8636 19.0909 60.8693 19.5114 62.4489 20.3523C64.0284 21.1818 65.2045 22.3011 65.9773 23.7102C66.75 25.108 67.1364 26.6591 67.1364 28.3636C67.1364 29.8636 66.8693 31.1023 66.3352 32.0795C65.8125 33.0568 65.1193 33.8295 64.2557 34.3977C63.4034 34.9659 62.4773 35.3864 61.4773 35.6591V36C62.5455 36.0682 63.6193 36.4432 64.6989 37.125C65.7784 37.8068 66.6818 38.7841 67.4091 40.0568C68.1364 41.3295 68.5 42.8864 68.5 44.7273C68.5 46.4773 68.1023 48.0511 67.3068 49.4489C66.5114 50.8466 65.2557 51.9545 63.5398 52.7727C61.8239 53.5909 59.5909 54 56.8409 54H44.2273ZM48.4545 50.25H56.8409C59.6023 50.25 61.5625 49.7159 62.7216 48.6477C63.892 47.5682 64.4773 46.2614 64.4773 44.7273C64.4773 43.5455 64.1761 42.4545 63.5739 41.4545C62.9716 40.4432 62.1136 39.6364 61 39.0341C59.8864 38.4205 58.5682 38.1136 57.0455 38.1136H48.4545V50.25ZM48.4545 34.4318H56.2955C57.5682 34.4318 58.7159 34.1818 59.7386 33.6818C60.7727 33.1818 61.5909 32.4773 62.1932 31.5682C62.8068 30.6591 63.1136 29.5909 63.1136 28.3636C63.1136 26.8295 62.5795 25.5284 61.5114 24.4602C60.4432 23.3807 58.75 22.8409 56.4318 22.8409H48.4545V34.4318Z" fill="white"/>
</svg>
